<?xml version="1.0" encoding="UTF-8" standalone="no"?>
<svg
   xmlns:dc="http://purl.org/dc/elements/1.1/"
   xmlns:cc="http://creativecommons.org/ns#"
   xmlns:rdf="http://www.w3.org/1999/02/22-rdf-syntax-ns#"
   xmlns:svg="http://www.w3.org/2000/svg"
   xmlns="http://www.w3.org/2000/svg"
   xmlns:sodipodi="http://sodipodi.sourceforge.net/DTD/sodipodi-0.dtd"
   xmlns:inkscape="http://www.inkscape.org/namespaces/inkscape"
   xml:space="preserve"
   style="enable-background:new 0 0 256.137 256.137;"
   viewBox="0 0 256.137 256.137"
   y="0px"
   x="0px"
   id="Capa_1"
   version="1.1"
   sodipodi:docname="egg1.svg"
   inkscape:version="0.92.4 (5da689c313, 2019-01-14)"><sodipodi:namedview
   pagecolor="#ffffff"
   bordercolor="#666666"
   borderopacity="1"
   objecttolerance="10"
   gridtolerance="10"
   guidetolerance="10"
   inkscape:pageopacity="0"
   inkscape:pageshadow="2"
   inkscape:window-width="1280"
   inkscape:window-height="961"
   id="namedview40"
   showgrid="false"
   inkscape:zoom="1"
   inkscape:cx="13.306219"
   inkscape:cy="62.196677"
   inkscape:window-x="-8"
   inkscape:window-y="-8"
   inkscape:window-maximized="1"
   inkscape:current-layer="Capa_1" /><metadata
   id="metadata3867"><rdf:RDF><cc:Work
       rdf:about=""><dc:format>image/svg+xml</dc:format><dc:type
         rdf:resource="http://purl.org/dc/dcmitype/StillImage" /><dc:title /></cc:Work></rdf:RDF></metadata><defs
   id="defs3865" />
<path
   id="path3830"
   d="M200.238,57.263C179.721,20.337,154.091,0,128.068,0s-51.652,20.337-72.17,57.263  c-16.955,30.518-27.911,68.538-27.911,96.862c0,27.337,10.247,52.933,28.855,72.071c18.771,19.308,44.066,29.94,71.227,29.94  s52.456-10.633,71.227-29.94c18.607-19.139,28.854-44.734,28.854-72.071C228.149,125.801,217.193,87.78,200.238,57.263z   M128.068,244.137c-49.392,0-88.081-39.538-88.081-90.012C39.987,100.581,81.154,12,128.068,12s88.081,88.581,88.081,142.125  C216.149,204.599,177.46,244.137,128.068,244.137z"
   style="fill:#552200" />
<g
   id="g3832">
</g>
<g
   id="g3834">
</g>
<g
   id="g3836">
</g>
<g
   id="g3838">
</g>
<g
   id="g3840">
</g>
<g
   id="g3842">
</g>
<g
   id="g3844">
</g>
<g
   id="g3846">
</g>
<g
   id="g3848">
</g>
<g
   id="g3850">
</g>
<g
   id="g3852">
</g>
<g
   id="g3854">
</g>
<g
   id="g3856">
</g>
<g
   id="g3858">
</g>
<g
   id="g3860">
</g>
<path
   id="path3869"
   d="M 119.65996,243.62727 C 98.510964,241.51369 79.238404,232.17649 64.854357,217.07496 50.525158,202.03101 42.23859,183.08306 40.408214,161.17674 39.296945,147.87685 41.71262,129.16133 46.890604,110.95422 58.278416,70.911763 79.936281,35.798318 102.51948,20.764284 c 6.02911,-4.013685 13.10797,-7.002406 19.08091,-8.056033 3.11561,-0.549592 9.82061,-0.549592 12.93621,0 5.97295,1.053627 13.05181,4.042348 19.08091,8.056033 20.20578,13.451341 39.8785,43.151621 51.9077,78.366014 9.24952,27.077142 12.37826,51.000252 9.20987,70.420942 -3.4473,21.13028 -14.33761,40.56576 -30.23236,53.95447 -12.34741,10.40066 -27.15385,17.03926 -43.56633,19.53339 -5.00061,0.75991 -16.40364,1.07514 -21.27643,0.58817 z"
   style="fill:#ffe6d5;stroke-width:0.3234053" /><ellipse
   ry="14.229833"
   rx="29.268179"
   cy="206.65599"
   cx="96.213074"
   id="path3871"
   style="fill:#ffccaa" /><ellipse
   ry="22.476667"
   rx="10.348969"
   cy="158.63029"
   cx="65.004463"
   id="path3873"
   style="fill:#ffccaa" /><ellipse
   ry="6.4681058"
   rx="7.7617269"
   cy="179.48994"
   cx="122.894"
   id="path3875"
   style="fill:#ffccaa" /><ellipse
   ry="13.097915"
   rx="10.834078"
   cy="170.91969"
   cx="96.859886"
   id="path3877"
   style="fill:#ffccaa" /><ellipse
   ry="6.6298079"
   rx="6.4681058"
   cy="138.57916"
   cx="99.285431"
   id="path3879"
   style="fill:#ffccaa;stroke-width:0.83361578" /><ellipse
   ry="3.8808634"
   rx="4.0425663"
   cy="150.38345"
   cx="121.11529"
   id="path3881"
   style="fill:#ffccaa" /><ellipse
   ry="9.0553484"
   rx="25.872423"
   cy="232.205"
   cx="139.06427"
   id="path3883"
   style="fill:#ffccaa" /><circle
   r="2.748945"
   cy="184.50273"
   cx="160.57072"
   id="path3887"
   style="fill:#ffccaa" /><ellipse
   ry="7.4383216"
   rx="7.276619"
   cy="208.27303"
   cx="167.36223"
   id="path3889"
   style="fill:#ffccaa" /><ellipse
   ry="6.6298084"
   rx="3.2340529"
   cy="195.17509"
   cx="141.0047"
   id="path3891"
   style="fill:#ffccaa" /></svg>