<?xml version="1.0" encoding="UTF-8" standalone="no"?>
<!-- Created with Inkscape (http://www.inkscape.org/) -->

<svg
   xmlns:dc="http://purl.org/dc/elements/1.1/"
   xmlns:cc="http://creativecommons.org/ns#"
   xmlns:rdf="http://www.w3.org/1999/02/22-rdf-syntax-ns#"
   xmlns:svg="http://www.w3.org/2000/svg"
   xmlns="http://www.w3.org/2000/svg"
   xmlns:sodipodi="http://sodipodi.sourceforge.net/DTD/sodipodi-0.dtd"
   xmlns:inkscape="http://www.inkscape.org/namespaces/inkscape"
   viewBox="0 0 210 297"
   version="1.1"
   id="svg8"
   inkscape:version="0.92.4 (5da689c313, 2019-01-14)"
   sodipodi:docname="egg1.svg">
  <defs
     id="defs2" />
  <sodipodi:namedview
     id="base"
     pagecolor="#ffffff"
     bordercolor="#666666"
     borderopacity="1.0"
     inkscape:pageopacity="0.0"
     inkscape:pageshadow="2"
     inkscape:zoom="0.5"
     inkscape:cx="400"
     inkscape:cy="902.85714"
     inkscape:document-units="mm"
     inkscape:current-layer="layer1"
     showgrid="false"
     inkscape:window-width="1280"
     inkscape:window-height="961"
     inkscape:window-x="-8"
     inkscape:window-y="-8"
     inkscape:window-maximized="1" />
  <metadata
     id="metadata5">
    <rdf:RDF>
      <cc:Work
         rdf:about="">
        <dc:format>image/svg+xml</dc:format>
        <dc:type
           rdf:resource="http://purl.org/dc/dcmitype/StillImage" />
        <dc:title></dc:title>
      </cc:Work>
    </rdf:RDF>
  </metadata>
  <g
     inkscape:label="Layer 1"
     inkscape:groupmode="layer"
     id="layer1">
    <path
       id="path3713"
       d="m 83.239236,94.815013 c -4.208891,1.012352 -8.209272,2.681272 -12.19336,4.342281 -0.861105,0.429577 -1.724149,0.855286 -2.58331,1.288736 -0.666006,0.336 -4.551235,2.32012 -5.190415,2.66493 -0.842627,0.45456 -3.332819,1.8864 -2.502572,1.4096 8.086288,-4.643853 9.095221,-5.348968 4.963215,-2.6775 -2.812735,1.74372 -5.459,3.67525 -7.554015,6.25051 -2.240153,2.67262 -3.760994,5.74364 -5.147167,8.91083 -1.394609,3.17707 -2.551909,6.44856 -3.802357,9.68408 -1.678553,4.45315 -2.783347,9.05521 -3.658997,13.72168 -1.108347,5.1307 -1.66937,10.34363 -1.998874,15.57442 -0.291753,5.31306 -0.323937,10.65298 0.597961,15.90442 1.12295,4.51739 3.316126,8.61484 5.648423,12.6028 2.104985,3.72128 4.291449,7.38822 6.670231,10.94182 3.006717,3.91219 5.844569,7.97976 9.345316,11.47191 3.345526,3.01447 7.108825,5.48064 10.889474,7.90004 3.822568,2.55294 8.146579,3.99319 12.517287,5.27199 5.21504,1.41814 10.628852,1.68262 16.000454,1.87361 6.68979,0.40057 13.17154,-1.22143 19.4782,-3.26112 4.43807,-1.53496 8.74748,-3.43386 12.86578,-5.69274 1.02892,-0.56436 4.07898,-2.32063 3.03695,-1.78087 -2.07239,1.07349 -4.08678,2.25543 -6.13016,3.38314 4.5813,-3.06274 8.73104,-6.633 12.47854,-10.65954 3.60979,-3.83728 6.14478,-8.46735 8.53304,-13.11894 2.40648,-4.99708 4.31467,-10.20379 5.80225,-15.54183 1.10066,-4.32615 1.78817,-8.72342 2.17047,-13.16576 0.26769,-4.32303 0.29043,-8.65794 0.27,-12.98788 0.064,-3.83292 -0.13934,-7.67409 -1.32831,-11.33378 -1.05652,-3.30142 -3.2193,-5.98502 -5.10534,-8.82564 -1.8125,-2.5418 -4.03248,-4.84566 -6.48538,-6.7786 -2.14774,-1.68698 -4.38582,-3.17972 -6.87501,-4.30753 -2.67253,-1.4476 -5.44584,-2.69103 -8.1684,-4.03893 -2.78872,-1.31593 -5.74836,-2.22809 -8.5361,-3.54028 -2.38467,-0.99689 -4.61195,-2.27118 -7.09358,-3.02214 -1.5747,-0.72362 -3.04128,-1.48377 -4.75766,-1.80257 -2.33474,-0.56739 -4.62721,-1.17674 -6.87208,-2.04164 -2.65942,-1.29741 -5.56812,-1.88585 -8.33159,-2.89181 -1.933992,-0.979503 -3.986307,-1.617749 -6.123452,-1.942393 -1.800598,-0.01159 -3.206621,-1.108464 -4.781365,-1.81964 -2.076013,-0.872657 -4.315677,-1.143344 -6.541521,-1.302599 -1.881802,-0.09963 -3.767275,-0.08681 -5.651045,-0.08284 -1.581534,0.0039 -3.163054,0.0071 -4.744588,0.01408 0,0 9.016206,-6.553708 9.016206,-6.553708 v 0 c 1.581336,-8e-6 3.162618,-0.0069 4.743932,-0.01132 1.894559,0.0019 3.791585,0.0073 5.679874,0.184031 2.314009,0.243919 4.618453,0.649041 6.760739,1.600279 1.53041,0.679313 2.92428,1.53007 4.65408,1.583508 2.13935,0.457176 4.17354,1.220176 6.16086,2.13238 2.77001,0.958101 5.60505,1.732978 8.28933,2.932536 2.26152,0.781275 4.58597,1.286465 6.91136,1.839846 1.6881,0.437774 3.17187,1.26944 4.77828,1.92432 2.44541,0.88358 4.70235,2.16046 7.09995,3.15942 2.81685,1.23585 5.72562,2.25634 8.50091,3.5893 2.76488,1.27921 5.50328,2.60928 8.21266,4.00236 2.51906,1.23489 4.8597,2.74451 7.02876,4.52996 2.46376,2.08679 4.73963,4.43738 6.57323,7.10222 1.9805,2.90515 4.18974,5.65873 5.23385,9.08536 0.22207,0.62669 0.48988,1.239 0.66622,1.88006 0.87003,3.1628 0.68447,6.55105 0.79504,9.78959 -0.0292,4.35494 0.0132,8.71315 -0.23416,13.0633 -0.31552,4.53081 -1.07345,8.99744 -2.1886,13.40218 -1.4449,5.40782 -3.3824,10.66238 -5.72594,15.74744 -2.35308,4.69476 -4.80597,9.42304 -8.33716,13.35841 -1.07611,1.17646 -2.23238,2.47342 -3.37409,3.58449 -2.83384,2.75777 -6.05647,5.05656 -9.21624,7.4172 -9.05247,5.38318 -17.90388,11.21376 -28.02476,14.4147 -6.43239,1.98545 -13.02754,3.5002 -19.814548,3.05515 -5.45655,-0.21922 -10.950536,-0.51535 -16.230616,-2.03735 -4.465722,-1.31046 -8.847823,-2.87873 -12.742479,-5.49454 -3.829849,-2.46582 -7.616131,-5.03062 -10.977139,-8.12357 -3.521628,-3.56437 -6.335175,-7.73141 -9.458184,-11.63838 -2.44974,-3.53907 -4.657315,-7.22168 -6.707283,-11.00673 -2.392042,-4.09618 -4.647552,-8.31413 -5.825106,-12.94275 -0.956374,-5.32963 -0.853165,-10.76128 -0.650994,-16.15705 0.243617,-5.2746 0.835572,-10.51347 1.916919,-15.68807 0.85245,-4.68663 1.843746,-9.32026 3.439134,-13.82247 1.645742,-4.68127 -0.391743,0.97005 1.305642,-3.32063 0.838636,-2.11991 1.39369,-4.35453 2.423464,-6.39992 1.395894,-3.20706 2.800855,-6.38425 5.022432,-9.13163 1.949661,-2.84883 4.646993,-4.89785 7.586905,-6.67523 7.562819,-5.06171 15.64295,-9.358542 23.846825,-13.283202 4.141951,-1.705261 8.314377,-3.461126 12.717338,-4.373065 0,0 -8.967584,6.687275 -8.967584,6.687275 z"
       inkscape:connector-curvature="0"
       style="stroke-width:0.26458332;fill:#000000" />
    <path
       style="fill:#f4e3d7;stroke-width:2.85714293"
       d="m 361.02647,834.93614 c -40.85606,-5.3268 -92.37928,-32.67474 -119.62913,-63.4978 -19.25387,-21.77857 -44.90311,-60.96805 -60.56128,-92.53163 l -13.6932,-27.6026 0.30857,-47.39221 c 0.34453,-52.91657 5.18983,-81.95545 21.25607,-127.39221 23.64053,-66.85751 41.80987,-86.28572 101.8183,-108.87283 15.29615,-5.75746 19.92549,-6.33704 32.12967,-4.02256 7.84223,1.48724 16.56008,3.9065 19.373,5.37612 2.81291,1.46961 26.32867,9.47424 52.25724,17.78805 50.03514,16.04342 106.30426,38.49564 144.09126,57.49458 28.52406,14.34161 56.84257,41.65336 68.97446,66.52235 7.7986,15.98621 8.43003,19.81538 9.35846,56.75253 1.57488,62.65559 -7.67158,106.93673 -32.72275,156.7089 C 542.23389,807.22291 460.31983,847.882 361.02647,834.93614 Z"
       id="path3715"
       inkscape:connector-curvature="0"
       transform="scale(0.26458333)" />
    <path
       style="fill:#de8787;stroke-width:0.26458332"
       id="path3737"
       d="m 74.297346,178.77624 c 1.816687,1.83409 3.3299,3.93971 4.606499,6.1774 0.461214,0.75523 0.636595,1.65305 1.078735,2.41653 0.172146,0.29726 -0.204845,-0.2983 0.04175,-0.40964 -3.7e-5,-0.0614 -0.05741,-0.16212 -1.16e-4,-0.18406 0.523428,-0.20039 3.456231,1.33498 4.032504,1.61529 0.500644,0.39145 -5.035302,7.47161 -5.535943,7.08016 v 0 c -1.314932,-0.78248 -2.654742,-1.48429 -4.005157,-2.19782 -1.612127,-1.26571 -2.449526,-2.59412 -3.458316,-4.32238 -1.41823,-1.79434 -3.036303,-3.46829 -3.868391,-5.6514 -0.319902,-0.50264 6.788537,-5.02672 7.108439,-4.52408 z"
       inkscape:connector-curvature="0" />
    <path
       style="fill:#de8787;stroke-width:0.26458332"
       id="path3739"
       d="m 101.04203,179.12545 c 2.06115,0.005 3.99385,0.70503 5.91448,1.36947 0.55639,0.28018 -3.40603,8.14879 -3.96242,7.86861 v 0 c -2.01426,-0.38765 -4.062718,-0.80778 -5.912262,-1.72503 -0.531251,-0.28002 3.428952,-7.79308 3.960202,-7.51305 z"
       inkscape:connector-curvature="0" />
    <path
       style="fill:#de8787;stroke-width:0.26458332"
       id="path3741"
       d="m 86.353998,166.26966 c 1.977935,0.97498 3.666188,2.43697 5.290349,3.90953 0.107016,0.0456 0.21403,0.0912 0.321046,0.13675 0.467338,0.39079 -5.059257,6.99996 -5.526596,6.60917 v 0 c -0.358061,-0.22684 -0.716121,-0.45368 -1.074179,-0.68051 -2.088859,-1.34222 -4.183745,-2.79037 -5.708719,-4.77936 -0.367382,-0.47363 6.330717,-5.66921 6.698099,-5.19558 z"
       inkscape:connector-curvature="0" />
    <path
       style="fill:#de8787;stroke-width:0.26458332"
       id="path3743"
       d="m 79.901972,181.34848 c 0.308235,0.0276 0.624216,0.009 0.924703,0.0828 1.384538,0.34098 3.522824,1.45 4.620115,2.39649 0.348239,0.30038 0.641598,0.65905 0.962398,0.98857 0.872797,1.48701 1.162248,1.62637 1.311838,3.48418 0.04664,0.57922 -0.123021,1.15707 -0.135101,1.73803 -0.0027,0.12886 0.07414,0.24801 0.09115,0.37577 0.03749,0.28158 0.08364,1.27762 0.09688,1.52928 0.06332,1.06781 0.107378,2.13379 0.130204,3.20309 0.0056,0.26247 0.05917,0.52671 0.02611,0.78715 -0.07527,0.59308 -0.232846,1.17279 -0.349268,1.75918 -0.495949,0.73877 -0.846524,1.59949 -1.487845,2.21629 -2.147718,2.06561 -6.395371,1.90169 -8.872596,0.74637 -0.581062,-0.271 -1.112348,-0.63794 -1.668523,-0.95691 -1.732619,-1.15822 -3.103557,-2.69278 -4.374573,-4.32032 -0.654037,-0.43185 -0.226526,-0.10135 -1.050518,-1.13299 -0.94045,-1.17744 -1.316008,-2.11662 -1.687766,-3.58394 -0.02495,-0.42963 -0.01728,-0.86242 -0.07486,-1.28891 -0.01042,-0.0771 -0.180173,0.0675 -0.233143,0.0105 -0.112157,-0.12065 -0.186253,-0.27566 -0.243025,-0.4303 -0.527314,-1.43623 -0.39075,-1.28436 -0.468336,-2.89395 0.176652,-0.66586 0.209833,-1.38759 0.529958,-1.99759 0.666612,-1.27023 1.917234,-2.59712 3.417138,-2.88427 2.352643,-0.45042 3.675449,-0.0895 5.745414,0.25655 3.378859,-1.57315 -3.225501,0.019 -2.556952,0.29723 0.02299,0.01 1.149252,-0.72725 1.53443,-0.97556 0.350957,-0.16452 0.701913,-0.32905 1.052867,-0.49357 0.524388,-0.2652 4.274772,7.15077 3.750384,7.41596 v 0 c 0.06432,-0.0888 0.128633,-0.17765 0.19295,-0.26647 -0.05351,-0.33159 -0.35977,0.20145 -0.986001,0.67305 -2.184091,1.64475 -3.213407,1.67878 -6.166962,1.37857 -0.492929,-0.0683 -1.966798,-0.10539 -1.478962,-0.2037 0.694576,-0.13997 1.445196,-0.004 2.111399,-0.24544 0.483206,-0.17498 1.215281,-1.85701 1.283001,-2.07472 0.09674,-0.31103 0.05192,-0.64938 0.07789,-0.97407 -0.01968,-0.0793 -0.0011,-0.18036 -0.05907,-0.23774 -0.04821,-0.0476 2.15e-4,0.13812 0.02286,0.20198 0.109152,0.30777 0.268981,0.59653 0.370414,0.90692 0.342683,1.04863 0.420826,1.42771 0.459865,2.49364 0.0037,0.0993 -0.04584,-0.19339 -0.06876,-0.29009 -0.333899,-1.04219 1.362061,1.66058 1.584068,1.66369 0.811599,0.87228 1.821392,1.49526 2.852317,2.0829 0.215982,0.0888 0.920197,0.12733 0.686898,0.13804 -0.527799,0.0242 -1.073415,-0.1148 -1.584968,0.0174 -0.132903,0.0343 0.274928,0.1929 0.249317,0.32775 -0.1567,0.8251 -1.298398,1.29481 -1.015521,2.30582 -2.65e-4,0.21434 0.0932,0.4505 -0.0011,0.64301 -0.08553,0.1747 -0.01,-0.38922 -0.0284,-0.58286 -0.02072,-0.21792 -0.06078,-0.43358 -0.08884,-0.65067 -0.129125,-0.99895 -0.07953,-0.63798 -0.18355,-1.70504 -0.03305,-0.33901 -0.06814,-0.67782 -0.102214,-1.01673 -0.03867,-1.04796 -0.171476,-2.74228 0.231175,-3.71775 0.06585,-0.15954 0.07847,0.33647 0.129892,0.50123 0.313743,1.00525 0.198916,0.73187 0.595728,1.4387 -0.429567,-0.005 -0.126908,0.0237 -0.845995,-0.29741 -1.143262,-0.51045 -2.316237,-0.95429 -3.423962,-1.5388 -0.516213,-0.29666 3.679184,-7.59699 4.195397,-7.30033 z"
       inkscape:connector-curvature="0" />
    <path
       style="fill:#de8787;stroke-width:0.26458332"
       id="path3745"
       d="m 107.38511,181.12927 c 0.20068,0.74783 0.3098,3.14893 1.16399,3.45738 0.27277,-0.29461 0.68788,-0.36163 1.06053,-0.48772 0.17048,-0.0577 0.69606,-0.13398 0.51729,-0.15475 -0.52543,-0.061 -2.74194,0.0821 -1.0804,-0.0177 0.10024,2.6e-4 0.32554,-0.0963 0.30074,7.9e-4 -0.0508,0.19911 -0.29904,0.2858 -0.41691,0.45413 -0.24702,0.35276 -0.49914,0.70878 -0.67325,1.10267 -0.26123,0.591 -0.28407,1.30804 -0.34071,1.94485 -0.0976,0.005 -0.20256,0.0519 -0.29286,0.0145 -0.21831,-0.0904 -0.3899,-0.26831 -0.59658,-0.3828 -0.11793,-0.0653 -0.24912,-0.10313 -0.37367,-0.15469 -0.17157,-0.0873 -0.34722,-0.16686 -0.51468,-0.26174 -1.21339,-0.68744 -0.19772,-0.18131 -1.06048,-0.59768 -0.05,0.008 -0.12133,-0.0188 -0.15016,0.0228 -0.0296,0.0427 0.0149,0.10299 0.0282,0.15319 0.23433,0.88531 3.47157,-0.13115 1.30667,0.23302 -0.95587,0.19891 -1.91535,0.35713 -2.88741,0.4448 -0.58056,0.15883 -2.82675,-8.05156 -2.24619,-8.21039 v 0 c 0.62732,0.0546 1.24596,0.1836 1.87439,0.0517 2.40915,-0.45061 4.86021,-0.71682 7.07704,0.52466 1.67167,0.83295 3.42097,1.5416 4.69728,2.97663 0.91287,1.30171 1.45669,1.74661 1.65601,3.42166 0.27003,2.26923 -0.69893,4.33872 -2.55573,5.63967 -0.393,0.27535 -0.87234,0.40012 -1.3085,0.60018 -3.24995,0.86751 -7.09217,0.95223 -9.89796,-1.21111 -0.53345,-0.4113 -0.96207,-0.94307 -1.44311,-1.4146 -1.738844,-2.54861 -2.904241,-4.97223 -2.238796,-8.14951 0,-0.59363 8.395226,-0.59363 8.395226,0 z"
       inkscape:connector-curvature="0" />
    <path
       style="fill:#de8787;stroke-width:0.26458332"
       id="path3747"
       d="m 80.469051,170.51239 c -0.670277,-3.20307 0.09454,-6.06415 2.955253,-8.05753 0.672145,-0.46835 1.51415,-0.62601 2.271223,-0.93902 1.445162,-0.0702 2.890888,-0.29174 4.335484,-0.21069 0.716856,0.0402 1.400164,0.331 2.077037,0.57047 1.692899,0.59892 3.286636,1.6918 4.257521,3.23668 0.347689,0.55324 0.546421,1.18713 0.819629,1.7807 0.08692,0.66133 0.261149,1.31698 0.26076,1.984 -0.0013,2.27703 -1.251434,4.14422 -2.779196,5.68482 -1.122196,0.8838 -2.479596,1.80717 -3.959987,1.91802 -1.047816,0.0785 -2.101329,0.0267 -3.151994,0.0401 -0.573046,-0.16618 1.777063,-8.27028 2.350111,-8.1041 v 0 c -0.652987,0.028 -1.310902,-7.9e-4 -1.958957,0.084 -0.05879,0.008 0.04509,0.10973 0.07059,0.16325 0.04892,0.10268 0.0831,0.22077 0.230942,0.22018 0.09362,-2.7e-4 0.180634,-0.0493 0.270952,-0.0739 0.03377,0.10016 -0.04075,0.37517 0.04533,0.31384 0.102293,-0.0729 0.114374,-0.2282 0.202266,-0.31792 0.257302,-0.26266 0.113816,1.32929 0.367654,1.02426 0.06972,0.13338 0.162931,0.25691 0.209164,0.40013 0.03924,0.12157 -0.257215,0.0473 -0.382582,0.0227 -0.251304,-0.0493 -0.495618,-0.13217 -0.748186,-0.17446 -0.844839,-0.14146 -1.653384,0.1205 1.107331,-0.31151 -0.457811,-0.84294 -0.161875,-0.0808 -0.07948,-1.447 0.0137,-0.22736 0.107561,-0.833 -0.06163,-0.68051 -0.228237,0.2057 0.0046,2.46531 -0.31401,2.87351 0,0.59363 -8.395229,0.59363 -8.395229,0 z"
       inkscape:connector-curvature="0" />
    <path
       style="fill:#de8787;stroke-width:0.26458332"
       id="path3749"
       d="m 117.49026,162.13366 c -0.0659,0.21411 -0.12705,0.42976 -0.1978,0.64232 -0.28309,0.85046 -0.61549,1.69235 -0.76456,2.58169 -0.0183,0.10896 -8e-5,0.44188 -0.002,0.33142 -0.002,-0.13517 5.3e-4,-0.27038 7.9e-4,-0.40557 -0.21638,-0.55096 -0.59722,-1.90263 -1.30946,-2.14013 -0.78539,-0.26189 -1.65926,-0.0249 -2.4802,-0.13205 -0.14755,-0.0193 0.28623,-0.0828 0.42513,-0.13623 0.40588,-0.15603 0.84138,-0.39206 1.22097,-0.58364 0.0446,-0.009 0.12448,-0.0729 0.13393,-0.0283 0.0149,0.0704 -0.0942,0.11984 -0.0994,0.19159 -0.003,0.0393 0.0808,-0.11352 0.091,-0.0754 0.0515,0.19344 -0.089,0.39263 -0.097,0.59265 -0.0121,0.30175 -0.002,0.60399 -0.003,0.90598 0.12214,0.86472 0.22089,0.97248 -0.61494,1.18856 -0.57177,-0.25757 3.07085,-8.34364 3.64262,-8.08607 v 0 c 2.29667,0.80903 3.30883,1.26654 4.70149,3.42026 0.20534,0.67662 0.4839,1.33522 0.61603,2.02986 0.34997,1.83987 -0.45215,3.99209 -1.56605,5.42275 -0.35033,0.44995 -0.80993,0.80298 -1.21489,1.20448 -3.02145,1.89624 -6.92432,3.59015 -10.17005,0.85035 -0.65524,-0.55309 -1.03392,-1.36822 -1.55087,-2.05233 -0.20292,-0.67687 -0.49385,-1.33339 -0.60876,-2.03061 -0.4918,-2.98403 0.81168,-6.02029 2.73843,-8.21564 0.3199,-0.50264 7.42834,4.02144 7.10844,4.52409 z"
       inkscape:connector-curvature="0" />
  </g>
</svg>
