<?xml version="1.0" encoding="UTF-8" standalone="no"?>
<!-- Created with Inkscape (http://www.inkscape.org/) -->

<svg
   xmlns:dc="http://purl.org/dc/elements/1.1/"
   xmlns:cc="http://creativecommons.org/ns#"
   xmlns:rdf="http://www.w3.org/1999/02/22-rdf-syntax-ns#"
   xmlns:svg="http://www.w3.org/2000/svg"
   xmlns="http://www.w3.org/2000/svg"
   xmlns:sodipodi="http://sodipodi.sourceforge.net/DTD/sodipodi-0.dtd"
   xmlns:inkscape="http://www.inkscape.org/namespaces/inkscape"
   width="210mm"
   height="297mm"
   viewBox="0 0 210 297"
   version="1.1"
   id="svg8"
   inkscape:version="0.92.4 (5da689c313, 2019-01-14)"
   sodipodi:docname="egg1hatched.svg">
  <defs
     id="defs2" />
  <sodipodi:namedview
     id="base"
     pagecolor="#ffffff"
     bordercolor="#666666"
     borderopacity="1.0"
     inkscape:pageopacity="0.0"
     inkscape:pageshadow="2"
     inkscape:zoom="0.5"
     inkscape:cx="400"
     inkscape:cy="742.85714"
     inkscape:document-units="mm"
     inkscape:current-layer="layer1"
     showgrid="false"
     inkscape:window-width="1280"
     inkscape:window-height="961"
     inkscape:window-x="-8"
     inkscape:window-y="-8"
     inkscape:window-maximized="1" />
  <metadata
     id="metadata5">
    <rdf:RDF>
      <cc:Work
         rdf:about="">
        <dc:format>image/svg+xml</dc:format>
        <dc:type
           rdf:resource="http://purl.org/dc/dcmitype/StillImage" />
        <dc:title></dc:title>
      </cc:Work>
    </rdf:RDF>
  </metadata>
  <g
     inkscape:label="Layer 1"
     inkscape:groupmode="layer"
     id="layer1">
    <path
       id="path3713"
       d="m 83.239236,94.815013 c -4.208891,1.012352 -8.209272,2.681272 -12.19336,4.342281 -0.861105,0.429577 -1.724149,0.855286 -2.58331,1.288736 -0.666006,0.336 -4.551235,2.32012 -5.190415,2.66493 -0.842627,0.45456 -3.332819,1.8864 -2.502572,1.4096 8.086288,-4.643853 9.095221,-5.348968 4.963215,-2.6775 -2.812735,1.74372 -5.459,3.67525 -7.554015,6.25051 -2.240153,2.67262 -3.760994,5.74364 -5.147167,8.91083 -1.394609,3.17707 -2.551909,6.44856 -3.802357,9.68408 -1.678553,4.45315 -2.783347,9.05521 -3.658997,13.72168 -1.108347,5.1307 -1.66937,10.34363 -1.998874,15.57442 -0.291753,5.31306 -0.323937,10.65298 0.597961,15.90442 1.12295,4.51739 3.316126,8.61484 5.648423,12.6028 2.104985,3.72128 4.291449,7.38822 6.670231,10.94182 3.006717,3.91219 5.844569,7.97976 9.345316,11.47191 3.345526,3.01447 7.108825,5.48064 10.889474,7.90004 3.822568,2.55294 8.146579,3.99319 12.517287,5.27199 5.21504,1.41814 10.628852,1.68262 16.000454,1.87361 6.68979,0.40057 13.17154,-1.22143 19.4782,-3.26112 4.43807,-1.53496 8.74748,-3.43386 12.86578,-5.69274 1.02892,-0.56436 4.07898,-2.32063 3.03695,-1.78087 -2.07239,1.07349 -4.08678,2.25543 -6.13016,3.38314 4.5813,-3.06274 8.73104,-6.633 12.47854,-10.65954 3.60979,-3.83728 6.14478,-8.46735 8.53304,-13.11894 2.40648,-4.99708 4.31467,-10.20379 5.80225,-15.54183 1.10066,-4.32615 1.78817,-8.72342 2.17047,-13.16576 0.26769,-4.32303 0.29043,-8.65794 0.27,-12.98788 0.064,-3.83292 -0.13934,-7.67409 -1.32831,-11.33378 -1.05652,-3.30142 -3.2193,-5.98502 -5.10534,-8.82564 -1.8125,-2.5418 -4.03248,-4.84566 -6.48538,-6.7786 -2.14774,-1.68698 -4.38582,-3.17972 -6.87501,-4.30753 -2.67253,-1.4476 -5.44584,-2.69103 -8.1684,-4.03893 -2.78872,-1.31593 -5.74836,-2.22809 -8.5361,-3.54028 -2.38467,-0.99689 -4.61195,-2.27118 -7.09358,-3.02214 -1.5747,-0.72362 -3.04128,-1.48377 -4.75766,-1.80257 -2.33474,-0.56739 -4.62721,-1.17674 -6.87208,-2.04164 -2.65942,-1.29741 -5.56812,-1.88585 -8.33159,-2.89181 -1.933992,-0.979503 -3.986307,-1.617749 -6.123452,-1.942393 -1.800598,-0.01159 -3.206621,-1.108464 -4.781365,-1.81964 -2.076013,-0.872657 -4.315677,-1.143344 -6.541521,-1.302599 -1.881802,-0.09963 -3.767275,-0.08681 -5.651045,-0.08284 -1.581534,0.0039 -3.163054,0.0071 -4.744588,0.01408 0,0 9.016206,-6.553708 9.016206,-6.553708 v 0 c 1.581336,-8e-6 3.162618,-0.0069 4.743932,-0.01132 1.894559,0.0019 3.791585,0.0073 5.679874,0.184031 2.314009,0.243919 4.618453,0.649041 6.760739,1.600279 1.53041,0.679313 2.92428,1.53007 4.65408,1.583508 2.13935,0.457176 4.17354,1.220176 6.16086,2.13238 2.77001,0.958101 5.60505,1.732978 8.28933,2.932536 2.26152,0.781275 4.58597,1.286465 6.91136,1.839846 1.6881,0.437774 3.17187,1.26944 4.77828,1.92432 2.44541,0.88358 4.70235,2.16046 7.09995,3.15942 2.81685,1.23585 5.72562,2.25634 8.50091,3.5893 2.76488,1.27921 5.50328,2.60928 8.21266,4.00236 2.51906,1.23489 4.8597,2.74451 7.02876,4.52996 2.46376,2.08679 4.73963,4.43738 6.57323,7.10222 1.9805,2.90515 4.18974,5.65873 5.23385,9.08536 0.22207,0.62669 0.48988,1.239 0.66622,1.88006 0.87003,3.1628 0.68447,6.55105 0.79504,9.78959 -0.0292,4.35494 0.0132,8.71315 -0.23416,13.0633 -0.31552,4.53081 -1.07345,8.99744 -2.1886,13.40218 -1.4449,5.40782 -3.3824,10.66238 -5.72594,15.74744 -2.35308,4.69476 -4.80597,9.42304 -8.33716,13.35841 -1.07611,1.17646 -2.23238,2.47342 -3.37409,3.58449 -2.83384,2.75777 -6.05647,5.05656 -9.21624,7.4172 -9.05247,5.38318 -17.90388,11.21376 -28.02476,14.4147 -6.43239,1.98545 -13.02754,3.5002 -19.814548,3.05515 -5.45655,-0.21922 -10.950536,-0.51535 -16.230616,-2.03735 -4.465722,-1.31046 -8.847823,-2.87873 -12.742479,-5.49454 -3.829849,-2.46582 -7.616131,-5.03062 -10.977139,-8.12357 -3.521628,-3.56437 -6.335175,-7.73141 -9.458184,-11.63838 -2.44974,-3.53907 -4.657315,-7.22168 -6.707283,-11.00673 -2.392042,-4.09618 -4.647552,-8.31413 -5.825106,-12.94275 -0.956374,-5.32963 -0.853165,-10.76128 -0.650994,-16.15705 0.243617,-5.2746 0.835572,-10.51347 1.916919,-15.68807 0.85245,-4.68663 1.843746,-9.32026 3.439134,-13.82247 1.645742,-4.68127 -0.391743,0.97005 1.305642,-3.32063 0.838636,-2.11991 1.39369,-4.35453 2.423464,-6.39992 1.395894,-3.20706 2.800855,-6.38425 5.022432,-9.13163 1.949661,-2.84883 4.646993,-4.89785 7.586905,-6.67523 7.562819,-5.06171 15.64295,-9.358542 23.846825,-13.283202 4.141951,-1.705261 8.314377,-3.461126 12.717338,-4.373065 0,0 -8.967584,6.687275 -8.967584,6.687275 z"
       inkscape:connector-curvature="0"
       style="stroke-width:0.26458332;fill:#000000" />
    <path
       style="fill:#ffe680;stroke-width:2.85714293"
       d="m 361.02647,834.93614 c -40.85606,-5.3268 -92.37928,-32.67474 -119.62913,-63.4978 -19.25387,-21.77857 -44.90311,-60.96805 -60.56128,-92.53163 l -13.6932,-27.6026 0.30857,-47.39221 c 0.34453,-52.91657 5.18983,-81.95545 21.25607,-127.39221 23.64053,-66.85751 41.80987,-86.28572 101.8183,-108.87283 15.29615,-5.75746 19.92549,-6.33704 32.12967,-4.02256 7.84223,1.48724 16.56008,3.9065 19.373,5.37612 2.81291,1.46961 26.32867,9.47424 52.25724,17.78805 50.03514,16.04342 106.30426,38.49564 144.09126,57.49458 28.52406,14.34161 56.84257,41.65336 68.97446,66.52235 7.7986,15.98621 8.43003,19.81538 9.35846,56.75253 1.57488,62.65559 -7.67158,106.93673 -32.72275,156.7089 C 542.23389,807.22291 460.31983,847.882 361.02647,834.93614 Z"
       id="path3715"
       inkscape:connector-curvature="0"
       transform="scale(0.26458333)" />
    <path
       style="fill:#000000;stroke-width:0.26458332"
       id="path30"
       d="m 91.194672,126.7161 c 0.395555,2.71847 0.303988,5.48205 0.12242,8.21469 -0.186555,1.9285 0.07599,-0.14311 -0.855948,-0.67136 -1.906294,-1.08055 -4.024387,0.21026 -1.672916,-1.02712 0.656614,-0.27106 2.694305,-1.25364 3.357751,-1.10184 0.06598,0.0151 -0.07397,0.11348 -0.114549,0.16766 -0.201046,0.26845 -0.406778,0.53337 -0.610169,0.80005 -0.288412,1.59408 -0.53607,0.31068 -0.813739,-0.31107 -0.07393,-0.16554 -0.165828,-0.32246 -0.24874,-0.48369 -0.09494,-0.21605 -0.189886,-0.43209 -0.28483,-0.64814 -0.205052,-0.32239 -1.276217,-1.80955 -1.437875,-1.8398 -0.51667,-0.30537 -0.990433,-0.79581 -1.401646,-1.23868 -0.241012,-0.30916 4.131156,-3.71758 4.372168,-3.40842 v 0 c 0.502526,0.3933 0.961906,0.84164 1.423006,1.28152 0.863801,1.02097 1.815986,2.00515 2.368217,3.2394 0.472574,1.03409 1.271923,2.60631 1.303572,3.74634 0.01503,0.54182 -0.101123,1.07933 -0.151685,1.61899 -0.30231,0.4802 -0.537462,1.00993 -0.906934,1.44059 -0.892876,1.04074 -2.392359,0.91333 -3.541598,1.4462 -1.790486,0.71214 -2.899759,1.42997 -5.175208,0.45657 -1.201319,-0.5139 -1.38811,-2.37399 -1.501397,-3.4672 -0.181567,-2.73264 -0.273134,-5.49622 0.122421,-8.21469 0,-0.39936 5.647679,-0.39936 5.647679,0 z"
       inkscape:connector-curvature="0" />
    <path
       style="fill:#000000;stroke-width:0.26458332"
       id="path32"
       d="m 61.504821,130.40523 c -0.497075,1.69149 -1.181404,3.33091 -1.434121,5.08465 0.0072,0.47217 0.129532,1.09466 0.413142,1.47103 0.22285,0.0505 0.117948,0.67687 0.389924,0.74673 0.07444,0.0191 0.04104,-0.15018 0.08083,-0.21594 0.03559,-0.0588 0.08525,-0.11025 0.140949,-0.15054 0.143849,-0.10405 0.399949,-0.17803 0.555268,-0.23281 -0.338659,-0.0224 -0.677387,-0.0439 -1.015979,-0.0673 -0.06501,-0.005 0.130384,0.0172 0.195204,0.0106 0.185383,-0.0191 0.70471,-0.43926 0.632156,-0.34861 0.17036,-0.86927 -0.03061,-1.81513 -0.138234,-2.69051 -0.02278,-0.19666 -0.04778,-0.39307 -0.06832,-0.58996 -0.06176,-0.5922 -0.10001,-1.18429 -0.101317,-1.77988 -0.0013,-0.54699 0.05189,-0.75898 -0.0077,-0.49509 -0.421724,0.32343 0.696492,1.08724 0.356923,1.43689 -0.22094,0.22749 -1.234355,0.18644 -0.921324,0.23725 0.359029,0.0583 0.727422,-0.007 1.091131,-0.0105 0.08577,-0.2516 -0.03415,0.0573 0.340371,-0.39375 0.557009,-0.67079 0.348099,-0.46951 0.712737,0.59414 0.436057,1.25 0.608605,2.55106 0.72726,3.86108 0.07183,0.79304 -0.173696,0.73809 0.181499,0.76848 0.03225,-0.0571 0.06451,-0.11418 0.09676,-0.17126 0.231122,0.32849 -4.414416,3.59705 -4.645541,3.26856 v 0 c -0.276743,-0.40242 -0.553487,-0.80484 -0.830233,-1.20726 -0.157014,-0.44676 -0.352949,-0.88169 -0.471043,-1.34028 -0.256672,-0.99672 -0.144275,-2.02656 -0.422635,-3.02804 -0.07442,-0.26775 -0.150672,-0.53499 -0.226009,-0.80249 -0.566024,-2.26625 -0.885098,-4.38395 1.124669,-6.12558 0.346078,-0.29991 0.791948,-0.46008 1.187924,-0.69012 0.863063,-0.0926 1.722231,-0.23496 2.589194,-0.27773 1.383654,-0.0683 3.121636,0.56903 3.933883,1.73467 0.276011,0.3961 0.413028,0.87276 0.619543,1.30914 0.148696,1.00554 0.114017,2.02398 0.348054,3.02124 0.297587,1.83074 0.45765,3.68769 -0.250801,5.45594 -0.187823,0.37643 -0.334105,0.77663 -0.56347,1.12929 -0.718466,1.10469 -2.527054,2.435 -3.84478,2.58163 -0.820734,0.0913 -1.651595,0.003 -2.477391,0.005 -2.359993,-0.52078 -3.726828,-1.33322 -4.529209,-3.72756 -0.406638,-1.16371 -0.918382,-2.30422 -0.939242,-3.56222 0.03624,-2.58378 0.703451,-5.08981 2.147639,-7.25959 0.173281,-0.35513 5.195533,2.09542 5.022252,2.45055 z"
       inkscape:connector-curvature="0" />
    <path
       style="fill:#ff6600;stroke-width:0.26458332"
       id="path34"
       d="m 76.426988,152.04641 c -1.503842,-1.45616 -2.55116,-3.50107 -4.317283,-4.67262 -0.718265,2.06995 3.018324,-0.38717 1.690362,0.40386 -0.19399,0.11556 -0.382662,0.24016 -0.579573,0.35067 -0.241522,0.13554 -0.490103,0.25811 -0.735152,0.38716 -0.60909,0.28459 -0.299657,0.0796 -0.09061,-0.28981 0.221798,-0.39195 0.170067,-0.4931 0.353479,0.0106 0.373745,0.69486 0.227277,1.60857 0.602919,2.29168 0.01257,0.0229 0.04876,-0.0625 0.06558,-0.0426 0.112901,0.13378 0.183783,0.29798 0.275672,0.44697 0.13706,0.15714 0.731489,2.31146 1.067711,1.08853 -0.425617,-0.077 -0.914099,0.005 -1.276856,-0.23097 -0.198236,-0.12873 0.465175,-0.0868 0.693523,-0.14782 0.644401,-0.17227 1.251749,-0.37187 1.736675,-0.83391 0.359804,-0.5825 -0.02922,-0.0756 -0.0464,0.21737 -0.07263,1.23862 0.135713,-0.36129 -0.02936,0.7714 -0.963247,0.44809 0.03064,-0.0945 0.44163,0.25345 0.173963,0.14726 -0.453962,0.0428 -0.679868,0.0731 -0.347311,0.0465 -0.692939,0.10489 -1.039408,0.15734 -0.385141,0.13869 -2.34655,-5.30803 -1.961407,-5.44672 v 0 c 1.102337,-0.0636 0.491953,0.0122 1.821964,-0.29208 2.580965,-0.23681 2.13179,-0.21507 4.091728,0.18429 0.488243,0.2657 1.030144,0.45053 1.464736,0.79711 1.967272,1.56884 2.003568,4.14569 0.840213,6.17869 -1.134829,1.71426 -2.205728,2.69241 -4.225345,3.27753 -0.422365,0.12237 -0.852263,0.25014 -1.291619,0.26837 -0.973135,0.0404 -1.946942,-0.0624 -2.920416,-0.0936 -0.404561,-0.1767 -0.830736,-0.31045 -1.213683,-0.53009 -1.226317,-0.70337 -2.080572,-1.96586 -2.532422,-3.27653 -0.749448,-1.33749 -1.052182,-2.49148 -1.391299,-3.95552 -0.466568,-2.26196 -0.185361,-4.24258 1.982029,-5.48905 0.800211,-0.28164 2.246407,-1.38194 2.864098,-1.44878 2.314909,-0.25052 2.408471,-0.0255 4.018622,0.72886 2.336397,1.65499 4.250433,3.85965 5.487863,6.45481 0.170296,0.36544 -4.997805,2.77379 -5.168101,2.40835 z"
       inkscape:connector-curvature="0" />
    <path
       style="fill:#ff6600;stroke-width:0.26458332"
       id="path36"
       d="m 74.750762,147.00467 c 0.828159,1.54275 2.122244,2.72846 3.136546,4.12824 0.207047,0.24292 0.09881,0.15766 0.300447,0.2839 0.264941,0.28488 -3.763944,4.03167 -4.028881,3.74679 v 0 c -0.62692,-0.53682 -0.311076,-0.25745 -0.94632,-0.83946 -1.50005,-1.3554 -2.825006,-2.9246 -3.484044,-4.86891 -0.173281,-0.35513 4.848971,-2.80569 5.022252,-2.45056 z"
       inkscape:connector-curvature="0" />
    <path
       style="fill:#000000;stroke-width:0.26458332"
       id="path38"
       d="m 112.36688,164.1145 c 2.75449,-0.49349 5.49162,-0.17442 8.21473,0.31256 1.18669,0.097 2.27338,0.5788 3.3124,1.12774 0.56917,0.30071 0.9249,0.56716 1.55556,0.64066 1.28371,0.26021 2.59062,0.26277 3.89029,0.42317 1.45771,0.14052 2.94322,0.12514 4.38814,0.39128 1.26753,0.23346 1.89684,0.47634 3.09859,0.86336 0.90517,0.18978 1.70218,0.79738 2.60671,0.9885 0.0879,0.0186 0.35811,-0.0153 0.26859,-0.0231 -1.14383,-0.0994 -1.76525,-0.006 -0.86432,-0.10933 1.90444,-0.40515 3.84805,-0.55008 5.78511,-0.69835 1.98334,-0.19055 3.7362,-0.97494 5.41807,-1.98613 0.71202,-0.46681 1.33241,-1.02687 1.77805,-1.74707 0.65841,-1.55913 1.53273,-2.98491 2.43269,-4.4124 0.11644,-0.19597 0.24623,-0.3846 0.34933,-0.58791 0.25714,-0.50699 0.44353,-1.04728 0.68869,-1.56017 0.40233,-0.84166 0.87845,-1.64151 1.29217,-2.4773 0.60874,-1.1932 0.67972,-2.41644 0.61232,-3.71932 -0.14895,-1.51751 -0.31062,-3.02885 -0.31331,-4.55528 0.0998,-1.33065 0.11857,-2.64928 0.038,-3.98106 -0.27211,-2.25772 -1.08729,-4.38514 -1.67736,-6.56726 -0.52884,-1.65019 -0.94563,-3.32805 -1.41305,-4.99623 -0.12076,-1.19382 -0.6559,-2.25205 -1.0125,-3.37941 -0.20932,-0.57574 -0.12906,-1.35181 -0.50883,-1.87604 -0.0258,-0.0356 -0.0972,-0.003 -0.12698,-0.0358 -0.25709,-0.27974 -0.45549,-0.60876 -0.70047,-0.89916 -0.69798,-0.83739 -1.82842,-0.82184 -2.84825,-0.89173 -1.9614,-0.28483 -3.89399,-0.68315 -5.78867,-1.28025 0.91108,-0.39748 -1.54863,-0.1215 -1.16369,-0.0685 0.43052,0.0592 0.87033,0.047 1.30364,0.0139 0.0932,-0.007 0.165,-0.17686 0.24715,-0.13233 0.1758,0.0953 -0.2005,0.7741 -0.47789,1.42134 -0.98552,1.96927 -1.45328,4.12872 -2.19325,6.18739 -0.30738,0.85514 -0.91132,2.22367 -1.27742,3.07332 -0.72236,1.61231 -1.29843,3.28842 -2.16954,4.82834 -1.16688,0.45553 -2.24799,1.3688 -3.50063,1.3666 -0.82526,-0.001 -1.42626,-0.84531 -2.05794,-1.37637 -0.42971,-0.36126 -0.75602,-0.83181 -1.09809,-1.27694 -1.29091,-1.67982 -2.04827,-3.58105 -2.86875,-5.51491 -0.38574,-1.17465 -0.75373,-2.21465 -1.05549,-3.40437 -0.10052,-0.39629 -0.16207,-0.80155 -0.25408,-1.1999 -0.0178,-0.0771 -0.12332,-0.28791 -0.0751,-0.22517 1.31764,1.71481 -0.38527,0.80095 3.58978,1.03343 0.0281,0.0453 0.10494,0.0867 0.0843,0.13575 -0.14937,0.35474 -1.48185,2.51613 -1.49919,2.5426 -1.11148,1.6974 -2.35515,3.31362 -3.59583,4.9167 -1.41751,1.62424 -2.98635,3.0921 -4.60938,4.50179 -2.17114,1.82587 -3.40712,1.65477 -6.06051,-0.2886 -0.87415,-0.64022 -1.69824,-3.71782 -2.03953,-4.79791 -0.21861,-0.97622 -0.48511,-1.94298 -0.67656,-2.92545 -0.0339,-0.17406 -0.21736,-0.40213 -0.089,-0.5245 0.11354,-0.10825 0.0468,0.35913 0.18549,0.43251 0.95331,0.50453 1.99079,0.83073 2.98619,1.24609 0.0964,-0.0317 0.19047,-0.0718 0.28924,-0.0952 0.0143,-0.003 -0.0203,0.0214 -0.0286,0.0335 -0.0542,0.0791 -0.0997,0.16439 -0.1589,0.23985 -0.16839,0.21468 -0.34793,0.42039 -0.52308,0.62959 -0.88229,1.05381 -0.27757,0.31464 -1.01369,1.22299 -0.55668,0.68455 -1.29648,1.35943 -1.51517,2.24978 -0.0965,0.38501 -5.54142,-0.97998 -5.4449,-1.36499 v 0 c 0.43512,-1.38499 1.1409,-2.66571 2.00116,-3.83721 0.87685,-1.25022 2.30379,-3.08206 3.64263,-3.79614 0.34333,-0.18312 0.7245,-0.28413 1.08675,-0.42619 1.13215,0.40531 2.33365,0.65336 3.39645,1.21594 0.27984,0.14813 0.31223,0.55094 0.46519,0.82816 0.58082,1.05272 1.00158,2.18931 1.31402,3.3483 0.0996,0.3298 0.627,2.03577 0.71339,2.4634 0.0267,0.13229 0.13563,0.40433 8e-4,0.4049 -0.82007,0.003 -1.61056,-0.45533 -2.42838,-0.39456 -0.30161,0.0224 -0.43914,0.41596 -0.65871,0.62395 0.0486,0.0121 0.0972,0.0243 0.14577,0.0364 0.14841,-0.16024 0.78918,-0.85773 0.93517,-0.9911 0.0908,-0.0829 0.22511,-0.11612 0.30162,-0.21238 0.81427,-1.02439 1.3494,-2.28632 2.32237,-3.19653 2.23093,-2.88016 4.36479,-5.86112 6.89587,-8.48775 1.2923,-0.10682 2.60002,-0.5463 3.87691,-0.32047 0.5913,0.10458 0.92139,0.77899 1.30893,1.23766 1.15188,1.36333 1.47846,3.5568 2.28685,5.09963 0.41862,1.08819 0.7694,2.20486 1.25446,3.26509 0.19428,0.42466 0.44644,0.82036 0.66942,1.23067 0.1371,0.25229 0.62363,0.56436 0.41083,0.75714 -0.98704,0.89416 -3.8482,-5.41659 -3.84257,1.09476 0.45213,-1.21588 0.76477,-2.95331 1.2949,-4.30741 1.25993,-3.21628 2.02571,-6.62281 3.64293,-9.68844 0.80744,-1.36287 1.93241,-3.60943 3.59168,-4.10874 1.68911,-0.50828 3.13741,-0.28005 4.7277,0.17186 1.84326,0.36793 3.71041,0.6158 5.54066,1.05294 2.08297,0.57932 4.01972,1.404 5.31308,3.2352 0.99511,1.34912 1.88002,2.74778 2.02491,4.46778 0.27962,1.15372 0.83823,2.2377 1.02461,3.42052 0.47486,1.67161 1.22366,3.26738 1.68946,4.94576 0.75754,2.62049 1.90202,5.18931 1.7033,7.98597 -0.10816,1.26742 -0.24363,2.53681 -0.17707,3.81073 0.0639,1.47913 0.20741,2.94815 0.39332,4.41704 0.0973,2.09264 -0.15926,4.12323 -0.94876,6.07955 -0.76114,1.64 -1.75279,3.1469 -2.48471,4.79949 -0.77532,1.65057 -1.79898,3.16827 -2.7895,4.69636 -0.80043,1.16768 -1.50252,2.39781 -2.62713,3.30833 -2.27254,1.84023 -4.62103,3.1865 -7.5991,3.47492 -1.8937,0.17095 -3.79803,0.0487 -5.68555,0.34814 -2.46779,0.33155 -4.53082,-0.10911 -6.86279,-0.79479 -2.19264,-0.58273 -4.41018,-0.95108 -6.66372,-1.21412 -1.48555,-0.21891 -2.99647,-0.3271 -4.42881,-0.81044 -1.44756,-0.49374 -2.80006,-1.23025 -4.37799,-1.20217 -2.50175,-0.19927 -5.01752,-0.13428 -7.50733,-0.45552 -0.38332,-0.0984 1.00855,-5.51941 1.39188,-5.42099 z"
       inkscape:connector-curvature="0" />
    <path
       style="fill:#000000;stroke-width:0.26458332"
       id="path40"
       d="m 35.575655,151.57189 c -1.276472,2.38429 -2.980095,4.49529 -4.586221,6.65908 -0.760664,0.8283 -0.939853,1.88826 -1.155698,2.95791 -0.169873,1.15166 -0.665239,2.20116 -0.753422,3.36683 -0.106264,1.26617 -0.381092,2.50877 -0.462148,3.7773 0.044,1.2947 0.14986,2.58492 0.175168,3.88022 -0.01376,1.20871 -0.04821,2.41495 -0.04454,3.62365 0.07289,0.38019 -0.178294,2.35213 0.03615,2.52619 0.06325,0.0513 0.152945,0.0562 0.229417,0.0842 1.042416,1.62105 2.244625,3.14104 3.466838,4.62995 0.08613,0.0842 0.533221,0.55208 0.698111,0.61128 0.09214,0.0331 0.19548,-0.0343 0.292757,-0.0233 0.76936,0.0869 1.492871,0.30099 2.216777,0.56325 0.425347,0.0892 0.915299,0.45068 1.381821,0.3695 0.0823,-0.0143 0.314523,-0.084 0.231756,-0.0953 -0.343786,-0.0469 -0.695034,0.0137 -1.040818,-0.0151 -0.152508,-0.0127 0.30526,-0.0223 0.457891,-0.0334 1.82921,-0.23603 3.629115,-0.0106 5.44272,0.18594 0.388408,0.13805 -1.563878,5.631 -1.952287,5.49295 v 0 c -0.322487,-0.0346 -4.315171,-0.31508 -1.585052,-0.40238 -1.966405,0.27852 -3.838673,0.14137 -5.720366,-0.46164 -1.970482,-0.49298 -3.735933,-1.36451 -5.169665,-2.8348 -1.676855,-1.75337 -3.100064,-3.71714 -4.07257,-5.95263 -0.140453,-0.44191 -0.312354,-0.87503 -0.421359,-1.32572 -0.266857,-1.10336 -0.08813,-2.26708 -0.126009,-3.38637 0.03568,-1.14277 0.06707,-2.28395 -0.0074,-3.42679 -0.0492,-1.39576 -0.1063,-2.79286 -0.09385,-4.18922 0.0277,-1.32998 0.169438,-2.65108 0.457,-3.95174 0.107492,-1.43524 0.497531,-2.79499 0.790317,-4.19881 0.08225,-0.28408 0.157037,-0.57043 0.246758,-0.85224 0.08821,-0.27706 0.267703,-0.52331 0.330718,-0.80715 0.221371,-0.99716 0.246195,-2.03029 0.847691,-2.91979 0.526366,-0.90647 0.93325,-1.65055 1.55301,-2.51577 1.024494,-1.43025 0.947637,-1.17103 2.05848,-2.41583 1.247243,-1.39765 0.277257,-0.44333 1.25581,-1.37087 0.173281,-0.35513 5.195533,2.09543 5.022252,2.45056 z"
       inkscape:connector-curvature="0" />
    <path
       style="fill:#000000;stroke-width:0.26458332"
       id="path42"
       d="m 29.84813,149.03597 c 2.032815,-1.72466 4.498348,-2.69237 7.119059,-3.02486 0.384138,-0.12673 2.176293,5.30578 1.792157,5.43251 v 0 c -1.807786,-0.088 -3.419779,1.21009 -5.07393,1.75082 -0.29405,0.27134 -4.131334,-3.88714 -3.837286,-4.15847 z"
       inkscape:connector-curvature="0" />
    <path
       style="fill:#000000;stroke-width:0.26458332"
       id="path44"
       d="m 140.26595,215.91236 c -0.28898,2.23373 -1.267,4.26373 -2.37458,6.19426 -0.0404,-0.23778 -0.13411,0.57549 -0.0941,0.50798 0.0402,-0.0679 -0.0159,-0.19988 0.0572,-0.22956 0.0664,-0.027 0.22838,0.26633 0.42331,0.57619 0.49028,0.68995 0.97123,2.39318 1.60206,2.76944 0.97909,0.54978 2.07613,0.81619 3.04157,1.40235 0.38838,0.23581 0.74175,0.52497 1.11263,0.78745 1.02404,0.68511 1.99758,1.46516 3.28981,1.45504 0.20589,-0.002 0.8014,0.002 0.61248,-0.08 -0.26914,-0.1166 -0.58615,-0.0237 -0.87923,-0.0355 1.29561,-0.10738 1.92643,-0.18889 2.85615,-1.07094 1.01471,-0.98558 1.65788,-2.21077 2.22305,-3.4874 0.50541,-0.93302 0.47233,-1.84431 0.32629,-2.85542 -0.32635,-1.48822 -0.40603,-2.99461 -0.362,-4.5125 0.0906,-0.93493 -0.13943,-1.96367 -0.34631,-2.79491 -0.86195,-1.1278 -1.62955,-2.34281 -2.71087,-3.27784 -0.69689,-0.26768 -1.14167,-1.04472 -1.80645,-1.33271 -0.0255,-0.0111 -0.0185,0.0525 -0.0278,0.0787 -0.12782,-0.0843 -0.25564,-0.16862 -0.38346,-0.25293 -0.30643,-0.23562 3.02569,-4.56916 3.33211,-4.33354 v 0 c 0.94568,0.20216 2.59302,1.64508 3.37654,2.18218 1.47907,1.46001 2.68309,3.13683 3.45125,5.08171 0.57429,1.50044 0.92489,3.10528 0.80477,4.72189 0.002,1.23342 -0.0373,2.4877 0.26184,3.69327 0.3219,1.91174 0.28164,3.81239 -0.509,5.61993 -0.83197,1.8022 -1.67291,3.58089 -3.1097,4.99895 -1.75707,1.78548 -3.04603,2.59337 -5.53998,3.04679 -0.90138,0.0394 -1.8021,0.13711 -2.70415,0.1183 -2.3192,-0.0484 -4.37667,-1.32388 -6.19372,-2.63124 -1.6855,-1.05861 -3.54429,-1.91617 -4.86469,-3.4535 -0.21091,-0.29827 -0.44375,-0.5822 -0.63275,-0.89482 -0.47199,-0.78068 -0.6336,-1.71671 -1.22484,-2.43622 -1.08211,-1.7844 -1.4158,-3.39004 -0.72105,-5.40751 0.63581,-1.67592 1.41062,-3.29856 2.16643,-4.92238 0.0548,-0.39225 5.60199,0.38226 5.54722,0.77451 z"
       inkscape:connector-curvature="0" />
    <path
       style="fill:#000000;stroke-width:0.26458332"
       id="path46"
       d="m 101.63679,229.14153 c -0.0868,2.11245 -0.36397,4.20342 -0.21168,6.31892 0.31245,1.04953 0.27222,-0.29522 -0.0468,-0.42972 -0.50095,-0.21123 -1.869019,-0.0839 -0.57451,-0.17224 2.15657,-0.28485 4.14428,-0.6937 6.32972,-0.14368 1.47982,0.21072 2.49895,1.44501 3.82385,1.96188 0.60852,-0.41072 0.91824,0.10285 -0.55138,-0.28203 -0.1852,-0.0485 0.38269,-0.0181 0.57308,-0.0383 0.51444,-0.0546 0.94476,-0.13087 1.44982,-0.21311 1.27554,-0.15792 2.31643,-0.591 3.36648,-1.29372 1.03193,-0.81368 1.8842,-1.83866 2.85854,-2.72382 0.53407,-0.47185 1.17734,-0.82918 1.61308,-1.40731 0.14532,-0.1928 0.20911,-0.43542 0.3232,-0.6482 0.30336,-0.68305 0.70817,-1.35016 0.69071,-2.11549 0.0198,-0.0911 -0.107,-0.87993 -0.17884,-0.82274 -0.0554,0.0441 0.0257,0.24527 -0.0353,0.20935 -0.17355,-0.10226 -0.69665,-1.03553 -0.73143,-1.09354 -0.23132,-0.47872 -0.56294,-0.84783 -0.93237,-1.20605 -0.17036,-0.16521 -0.44626,-0.69375 -0.53244,-0.47263 -0.0375,0.0962 0.0503,0.20038 0.0755,0.30056 -0.8743,-0.14132 -1.60692,-0.67838 -2.3606,-1.10747 -0.30871,-0.25021 3.22984,-4.61598 3.53855,-4.36577 v 0 c 0.54391,0.30053 1.08582,0.50668 1.6906,0.66752 0.36802,0.22203 0.75311,0.41796 1.10407,0.66608 1.07373,0.75912 1.82406,1.90718 2.4674,3.02519 0.90409,1.45591 1.53636,2.5145 1.47424,4.29948 -0.0526,1.50004 -0.42884,2.87277 -1.07509,4.22716 -0.70283,1.39108 -1.54939,2.70519 -2.86046,3.60239 -1.1581,0.90768 -2.09419,2.08824 -3.18258,3.07631 -1.50768,1.10189 -3.04989,2.06948 -4.90882,2.45736 -2.35935,0.57186 -5.02638,0.8286 -7.26382,-0.28136 -0.87133,-0.49834 -1.69155,-1.12446 -2.71841,-1.24002 -0.50474,-0.0304 -1.33062,-0.0632 0.81612,-0.11479 0.19323,-0.005 -0.38362,0.0481 -0.57461,0.0778 -0.80816,0.12559 -1.60791,0.30165 -2.41916,0.40866 -3.884899,0.43866 -6.018787,-0.35247 -7.102735,-4.22209 -0.386744,-2.57713 -0.215157,-5.16952 0.518779,-7.67905 0.05477,-0.39225 5.601986,0.38226 5.547226,0.77451 z"
       inkscape:connector-curvature="0" />
    <path
       style="fill:#000000;stroke-width:0.26458332"
       id="path48"
       d="m 95.213211,229.3918 c -0.118242,-1.73648 0.470548,-3.3777 1.068885,-4.97528 0.119832,-0.40255 5.812674,1.29212 5.692844,1.69467 v 0 c -0.45417,1.33819 -0.90783,2.67285 -1.21451,4.05512 -0.0548,0.39225 -5.601985,-0.38226 -5.547219,-0.77451 z"
       inkscape:connector-curvature="0" />
    <path
       style="fill:#ffe680;stroke-width:2"
       d="m 130.47282,694.21794 c -4.2624,-1.2302 -8.92937,-5.15783 -13.45041,-11.31962 l -6.92325,-9.43577 -0.0258,-25 c -0.0292,-28.22298 2.85783,-42.35665 11.07357,-54.21197 2.96841,-4.28342 5.65601,-7.78803 5.97243,-7.78803 0.31642,0 0.50784,16.875 0.42537,37.5 -0.147,36.75992 -0.0303,37.84536 5.91442,55 3.3354,9.625 5.49659,17.41883 4.80263,17.31962 -0.69396,-0.0992 -4.19897,-1.02811 -7.78892,-2.06423 z"
       id="path52"
       inkscape:connector-curvature="0"
       transform="scale(0.26458333)" />
    <path
       style="fill:#ff6600;stroke-width:2"
       d="m 412.13103,889.12921 c -3.12353,-2.1878 -8.77501,-3.33333 -16.44502,-3.33333 H 384 v -11.38175 -11.38176 l 12.49354,-1.30583 c 6.87145,-0.71821 20.92523,-3.60288 31.23064,-6.41039 10.30541,-2.8075 19.93088,-4.64646 21.38993,-4.08656 1.45905,0.55989 4.11723,3.25294 5.90705,5.98457 4.19994,6.40991 1.58866,11.74294 -11.28023,23.0377 -14.11253,12.38626 -23.02623,14.88959 -31.6099,8.87735 z"
       id="path54"
       inkscape:connector-curvature="0"
       transform="scale(0.26458333)" />
    <path
       style="fill:#ff6600;stroke-width:2"
       d="m 541.53329,858.67364 c -17.04647,-9.28128 -20.56715,-15.55425 -15.27212,-27.21109 4.8587,-10.69628 4.73735,-16.41354 -0.38287,-18.03863 -3.44529,-1.09349 -1.55924,-2.88909 11.49266,-10.94148 17.41566,-10.74461 17.91925,-10.71787 28.99272,1.53913 6.54152,7.24068 7.09665,8.90644 8.16559,24.50195 0.95061,13.86914 0.51502,17.97172 -2.545,23.96986 -7.33648,14.38068 -13.20289,15.57131 -30.45098,6.18026 z"
       id="path56"
       inkscape:connector-curvature="0"
       transform="scale(0.26458333)" />
  </g>
</svg>
